<svg width="20" height="20" viewBox="0 0 20 20" fill="none" xmlns="http://www.w3.org/2000/svg">
<path d="M3.54041 2.86534C3.54041 2.48508 3.53573 2.12883 3.54158 1.772C3.55329 1.01375 4.03378 0.357862 4.76302 0.107399C4.88124 0.0667994 5.00824 0.0324893 5.13232 0.0290583C5.67017 0.0119034 6.21446 -0.0618631 6.73827 0.122267C7.41717 0.361292 7.89708 1.00746 7.91932 1.71253C7.92985 2.04076 7.92283 2.36899 7.92342 2.6978C7.92342 2.74869 7.92342 2.80016 7.92342 2.85848C9.38774 2.85848 10.8374 2.85848 12.3099 2.85848C12.3099 2.80359 12.3088 2.74869 12.3099 2.69437C12.3175 2.30438 12.2935 1.91153 12.3392 1.52554C12.434 0.718687 13.1445 0.067371 13.9808 0.0204808C14.4017 -0.00296433 14.8336 -0.00753866 15.2474 0.0587938C16.0603 0.189172 16.6654 0.912538 16.6894 1.71939C16.7005 2.09451 16.6912 2.47021 16.6912 2.86649C16.7538 2.86649 16.8053 2.86649 16.8568 2.86649C17.2759 2.86649 17.6949 2.86534 18.1134 2.86649C18.9801 2.86992 19.6163 3.48978 19.6163 4.33895C19.6175 9.06972 19.6175 13.8005 19.6163 18.5313C19.6163 19.3747 18.9737 19.9991 18.1087 19.9991C12.7793 20.0003 7.44994 20.0003 2.12116 19.9991C1.25731 19.9991 0.617626 19.3718 0.617626 18.5272C0.617041 13.8011 0.617041 9.07544 0.617626 4.34925C0.617626 3.48349 1.25146 2.8682 2.13871 2.86592C2.54781 2.86534 2.95691 2.86592 3.36659 2.86592C3.41809 2.86534 3.47077 2.86534 3.54041 2.86534ZM9.74591 11.082C9.69558 11.078 9.65286 11.0717 9.61072 11.0717C8.48527 11.0711 7.35981 11.0734 6.23436 11.0688C6.11087 11.0683 6.09214 11.1134 6.09214 11.2187C6.09565 12.3086 6.0939 13.3985 6.09448 14.489C6.09448 14.5387 6.10033 14.589 6.10385 14.6388C6.14598 14.6428 6.16998 14.6474 6.19398 14.6474C7.33874 14.6479 8.4841 14.6462 9.62886 14.6502C9.75469 14.6508 9.75528 14.5885 9.75528 14.4998C9.75411 13.4048 9.75469 12.3103 9.75411 11.2152C9.75411 11.1735 9.74943 11.1323 9.74591 11.082ZM10.4792 14.6479C10.553 14.6479 10.6057 14.6479 10.6577 14.6479C11.7639 14.6479 12.8694 14.6451 13.9756 14.6514C14.1166 14.6519 14.1424 14.6045 14.1418 14.4804C14.1377 13.3951 14.1377 12.3097 14.1418 11.2244C14.1424 11.1094 14.1155 11.0688 13.9896 11.0694C12.8689 11.074 11.7487 11.074 10.6279 11.0694C10.5021 11.0688 10.4757 11.11 10.4763 11.2244C10.4804 12.3097 10.4787 13.3951 10.4787 14.4804C10.4792 14.5273 10.4792 14.5742 10.4792 14.6479ZM6.10502 7.15408C6.10092 7.18839 6.09507 7.21584 6.09507 7.24329C6.09448 8.24228 6.09624 9.2407 6.09273 10.2397C6.09214 10.3455 6.13545 10.3649 6.23085 10.3643C7.35513 10.3621 8.48 10.3609 9.60428 10.3655C9.72836 10.3661 9.75762 10.3266 9.75762 10.2111C9.75352 9.23612 9.75528 8.26115 9.75528 7.28618C9.75528 7.24443 9.7506 7.20269 9.74767 7.15351C8.52916 7.15408 7.32001 7.15408 6.10502 7.15408ZM10.4886 10.3529C11.7136 10.3529 12.9186 10.3529 14.1289 10.3529C14.1289 9.28015 14.1289 8.21769 14.1289 7.15751C12.9087 7.15751 11.7001 7.15751 10.4886 7.15751C10.4886 8.22741 10.4886 9.28587 10.4886 10.3529ZM2.08194 14.6479C2.14749 14.6479 2.19549 14.6479 2.24348 14.6479C3.22671 14.6479 4.20995 14.6451 5.19377 14.6514C5.33365 14.6519 5.37403 14.6171 5.37286 14.4781C5.367 13.3985 5.36759 12.3189 5.37227 11.2393C5.37286 11.1134 5.34594 11.0683 5.20606 11.0688C4.21814 11.0751 3.22964 11.0723 2.24114 11.0723C2.18905 11.0723 2.13696 11.0723 2.08194 11.0723C2.08194 12.2708 2.08194 13.4494 2.08194 14.6479ZM18.1497 11.0809C18.1122 11.0774 18.0835 11.0723 18.0554 11.0723C17.033 11.0717 16.0111 11.074 14.9887 11.0694C14.8622 11.0688 14.8634 11.1306 14.8634 11.2198C14.8652 12.3091 14.8669 13.3979 14.8611 14.4873C14.8605 14.6245 14.9079 14.6508 15.0355 14.6502C16.0187 14.6457 17.002 14.6479 17.9858 14.6479C18.0385 14.6479 18.0905 14.6479 18.1502 14.6479C18.1497 13.4528 18.1497 12.2743 18.1497 11.0809ZM9.74357 18.5673C9.74767 18.5238 9.75411 18.4872 9.75411 18.4501C9.75469 17.4608 9.75235 16.4709 9.75703 15.4817C9.75762 15.3616 9.70261 15.3547 9.60721 15.3547C8.48761 15.3564 7.36742 15.3576 6.24782 15.3536C6.12843 15.353 6.09097 15.3833 6.09156 15.504C6.09624 16.4789 6.09448 17.4545 6.09448 18.4295C6.09448 18.4752 6.09975 18.5204 6.10268 18.5673C7.3247 18.5673 8.53033 18.5673 9.74357 18.5673ZM14.1272 18.5667C14.1318 18.533 14.1389 18.5049 14.1389 18.4775C14.1395 17.4739 14.1377 16.4704 14.1418 15.4662C14.1424 15.3439 14.071 15.3553 13.9914 15.3553C12.8718 15.3559 11.7516 15.357 10.632 15.353C10.5114 15.3524 10.4757 15.385 10.4763 15.5045C10.481 16.4749 10.4787 17.4453 10.4792 18.4157C10.4792 18.4661 10.4845 18.5158 10.4874 18.5667C11.71 18.5667 12.9163 18.5667 14.1272 18.5667ZM2.08312 10.3569C2.14281 10.3598 2.1908 10.3638 2.23879 10.3638C3.2273 10.3643 4.2158 10.3615 5.20372 10.3672C5.34125 10.3678 5.37227 10.3255 5.37169 10.1979C5.367 9.23212 5.36935 8.26687 5.36935 7.30104C5.36935 7.25473 5.36935 7.20841 5.36935 7.15523C4.26496 7.15523 3.17755 7.15523 2.08312 7.15523C2.08312 8.22112 2.08312 9.28015 2.08312 10.3569ZM14.8763 7.15294C14.8722 7.19068 14.8646 7.2227 14.8646 7.25473C14.864 8.24914 14.8658 9.24299 14.8622 10.2374C14.8617 10.3398 14.8985 10.3655 14.9974 10.3655C16.0099 10.3626 17.023 10.3638 18.0355 10.3626C18.0753 10.3626 18.1145 10.3523 18.1461 10.3478C18.1461 9.27043 18.1461 8.21197 18.1461 7.15294C17.0511 7.15294 15.9666 7.15294 14.8763 7.15294ZM5.36993 18.5701C5.36993 18.5067 5.36993 18.4552 5.36993 18.4043C5.36993 17.4431 5.36759 16.4824 5.37286 15.5211C5.37344 15.3919 5.34067 15.3524 5.2043 15.353C4.2158 15.3587 3.2273 15.3559 2.23879 15.3564C2.18729 15.3564 2.13579 15.361 2.08897 15.3633C2.08897 16.4423 2.08897 17.5048 2.08897 18.5707C3.18165 18.5701 4.26204 18.5701 5.36993 18.5701ZM18.1491 15.3656C18.1134 15.3616 18.0853 15.3564 18.0566 15.3564C17.0341 15.3559 16.0111 15.3576 14.9887 15.3536C14.8628 15.353 14.8628 15.4142 14.8628 15.504C14.8646 16.4744 14.864 17.4453 14.8646 18.4157C14.8646 18.4661 14.8699 18.5164 14.8722 18.5673C15.9731 18.5673 17.057 18.5673 18.1491 18.5673C18.1491 17.5002 18.1491 16.4412 18.1491 15.3656ZM6.46378 3.39315C6.46378 2.86992 6.46495 2.34612 6.4632 1.8229C6.46261 1.58501 6.3163 1.43862 6.074 1.43519C5.84516 1.43176 5.61633 1.43176 5.38749 1.43519C5.14695 1.43862 5.00122 1.58616 5.00122 1.82518C5.00005 2.86706 5.00005 3.90951 5.00122 4.95139C5.00122 5.21786 5.14051 5.35853 5.41207 5.36425C5.61632 5.36825 5.82117 5.36711 6.02601 5.36482C6.32566 5.36196 6.46378 5.22644 6.46378 4.9348C6.46378 4.4213 6.4632 3.90722 6.46378 3.39315ZM13.7707 3.39315C13.7707 3.9118 13.7702 4.43045 13.7713 4.9491C13.7719 5.21672 13.91 5.35853 14.1793 5.36368C14.3935 5.36825 14.6077 5.36825 14.8219 5.36368C15.0928 5.35853 15.2327 5.21729 15.2333 4.95139C15.2345 3.90951 15.2345 2.86706 15.2333 1.82518C15.2333 1.57987 15.0852 1.43748 14.8318 1.43519C14.6129 1.43291 14.3935 1.43291 14.1746 1.43519C13.9147 1.43748 13.7713 1.58101 13.7707 1.83719C13.7702 2.35584 13.7702 2.87449 13.7707 3.39315Z" fill="#003946"/>
</svg>