<svg width="16" height="11" viewBox="0 0 16 11" fill="none" xmlns="http://www.w3.org/2000/svg">
<path d="M7.99805 5.76221C8.05397 5.69244 8.08119 5.65037 8.11633 5.61573C9.76971 3.96334 11.4246 2.31194 13.0775 0.659048C13.2477 0.488811 13.4382 0.37301 13.6827 0.438828C13.7965 0.469511 13.9158 0.531865 13.9999 0.613025C14.5309 1.12522 15.0555 1.64484 15.5771 2.16694C15.8626 2.45298 15.8572 2.81918 15.5692 3.11017C15.1658 3.51696 14.7581 3.91979 14.3523 4.3246C12.397 6.2759 10.4413 8.2262 8.48699 10.179C8.32616 10.3393 8.15097 10.4368 7.9159 10.4096C7.74319 10.3898 7.62244 10.2884 7.50813 10.174C6.31646 8.98683 5.1248 7.79962 3.93413 6.61142C2.77265 5.45242 1.61167 4.29293 0.450693 3.13294C0.208203 2.89094 0.146839 2.62866 0.279466 2.36142C0.32054 2.27878 0.383884 2.20306 0.450198 2.13724C0.949528 1.6394 1.45133 1.14452 1.95363 0.650141C2.2758 0.33342 2.59301 0.335894 2.9132 0.65509C4.57054 2.30946 6.22739 3.96433 7.88374 5.61969C7.91838 5.65433 7.9456 5.6959 7.99805 5.76221Z" fill="#003946"/>
</svg>
